# xmcd CD database file
#
# Track frame offsets:
#	150
#	35970
#	64105
#	86920
#	107313
#	137398
#	165943
#	201218
#
# Disc length: 3024 seconds
#
# Revision: 2
# Processed by: cddbd v1.5.2PL0 Copyright (c) Steve Scherf et al.
# Submitted via: CDex 1.70beta3
#
DISCID=640bce08
DTITLE=藤原ヒロシ - Hiroshi Fujiwara/Remixes
DYEAR=2000
DGENRE=Rock
TTITLE0=HARD BOILED DUB
TTITLE1=LET MY LOVE SHINE
TTITLE2=MY EMOTION
TTITLE3=SONG FOR TWO
TTITLE4=I DANCE ALONE
TTITLE5=SWEET VIBRATIONS
TTITLE6=NATURAL BORN DUB
TTITLE7=GETTING OVER YOU
EXTD=YEAR: 2000
EXTT0=
EXTT1=
EXTT2=
EXTT3=
EXTT4=
EXTT5=
EXTT6=
EXTT7=
PLAYORDER=
